<?xml version="1.0" standalone="no"?>
<!DOCTYPE svg PUBLIC "-//W3C//DTD SVG 1.1//EN" "http://www.w3.org/Graphics/SVG/1.1/DTD/svg11.dtd" >
<!--
2013-9-30: Created.
-->
<svg>
<metadata>
Created by iconfont
</metadata>
<defs>

<font id="iconfont" horiz-adv-x="1024" >
  <font-face
    font-family="iconfont"
    font-weight="500"
    font-stretch="normal"
    units-per-em="1024"
    ascent="896"
    descent="-128"
  />
    <missing-glyph />
    
    <glyph glyph-name="x" unicode="x" horiz-adv-x="1001"
d="M281 543q-27 -1 -53 -1h-83q-18 0 -36.5 -6t-32.5 -18.5t-23 -32t-9 -45.5v-76h912v41q0 16 -0.5 30t-0.5 18q0 13 -5 29t-17 29.5t-31.5 22.5t-49.5 9h-133v-97h-438v97zM955 310v-52q0 -23 0.5 -52t0.5 -58t-10.5 -47.5t-26 -30t-33 -16t-31.5 -4.5q-14 -1 -29.5 -0.5
t-29.5 0.5h-32l-45 128h-439l-44 -128h-29h-34q-20 0 -45 1q-25 0 -41 9.5t-25.5 23t-13.5 29.5t-4 30v167h911zM163 247q-12 0 -21 -8.5t-9 -21.5t9 -21.5t21 -8.5q13 0 22 8.5t9 21.5t-9 21.5t-22 8.5zM316 123q-8 -26 -14 -48q-5 -19 -10.5 -37t-7.5 -25t-3 -15t1 -14.5
t9.5 -10.5t21.5 -4h37h67h81h80h64h36q23 0 34 12t2 38q-5 13 -9.5 30.5t-9.5 34.5q-5 19 -11 39h-368zM336 498v228q0 11 2.5 23t10 21.5t20.5 15.5t34 6h188q31 0 51.5 -14.5t20.5 -52.5v-227h-327z" />
    

    
    <glyph glyph-name="phone" unicode="&#59079;" d="M512 11.946667000000048c-40.96 0-75.093333 34.133333-75.093333 75.093333s34.133333 75.093333 75.093333 75.093333 75.093333-34.133333 75.093333-75.093333S552.96 11.946667000000048 512 11.946667000000048zM512 124.58666700000003c-20.48 0-37.546667-17.066667-37.546667-37.546667s17.066667-37.546667 37.546667-37.546667c20.48 0 37.546667 17.066667 37.546667 37.546667S532.48 124.58666700000003 512 124.58666700000003zM679.253333-97.27999999999997c-3.413333 0-6.826667 0-10.24 3.413333-40.96 23.893333-109.226667 23.893333-109.226667 23.893333l0 0L276.48-69.97333300000003c-54.613333 0-98.986667 44.373333-98.986667 98.986667L177.493333 756.0533330000001c0 54.613333 44.373333 98.986667 98.986667 98.986667l471.04 0c54.613333 0 98.986667-44.373333 98.986667-98.986667l0-727.04c0-54.613333-44.373333-98.986667-98.986667-98.986667-10.24 0-17.066667 6.826667-17.066667 17.066667s6.826667 17.066667 17.066667 17.066667c34.133333 0 61.44 27.306667 61.44 61.44L808.96 756.0533330000001c0 34.133333-27.306667 61.44-61.44 61.44L276.48 817.493333c-34.133333 0-61.44-27.306667-61.44-61.44l0-727.04c0-34.133333 27.306667-61.44 61.44-61.44l283.306667 0c3.413333 0 78.506667 0 126.293333-30.72 10.24-6.826667 10.24-17.066667 6.826667-23.893333C692.906667-93.866667 686.08-97.27999999999997 679.253333-97.27999999999997zM590.506667 745.8133330000001l-153.6 0c-10.24 0-17.066667 6.826667-17.066667 17.066667s6.826667 17.066667 17.066667 17.066667l153.6 0c10.24 0 17.066667-6.826667 17.066667-17.066667C607.573333 756.0533330000001 600.746667 745.8133330000001 590.506667 745.8133330000001z"  horiz-adv-x="1024" />

    
    <glyph glyph-name="wancheng" unicode="&#58956;" d="M512 896C229.2 896 0 666.8 0 384c0-282.8 229.2-512 512-512s512 229.2 512 512C1024 666.8 794.7 896 512 896zM492.2 128L256 381.4l60.5 51.2 136.6-113c56 70.2 180.2 209.6 351.6 320.4l14.4-35.1C661.8 452.4 533 237.70000000000005 492.2 128z"  horiz-adv-x="1025" />

    
    <glyph glyph-name="save" unicode="&#58934;" d="M739.439127 585.597678L409.320843 255.48246500000005l-125.456838 125.454792c-13.302927 13.303951-34.928371 13.303951-48.231298 0-13.302927-13.301904-13.302927-34.926324 0-48.230275l149.538207-149.53923c6.686256-6.686256 15.41707-10.027337 24.14993-10.027337s17.463674 3.341081 24.150953 9.958776l354.199652 354.197605c13.301904 13.302927 13.301904 34.929394 0 48.232322C774.366474 598.832045 752.741031 598.9006059999999 739.439127 585.597678zM511.651054 896c-282.567481 0-511.651054-229.083573-511.651054-511.651054 0-282.567481 229.083573-511.651054 511.651054-511.651054 282.567481 0 511.651054 229.083573 511.651054 511.651054C1023.302108 666.916427 794.218535 896 511.651054 896zM511.651054-59.08162600000003c-244.909963 0-443.430572 198.520609-443.430572 443.430572s198.520609 443.430572 443.430572 443.430572 443.430572-198.520609 443.430572-443.430572S756.561017-59.08162600000003 511.651054-59.08162600000003z"  horiz-adv-x="1024" />

    
    <glyph glyph-name="over1" unicode="&#58947;" d="M478.30072729 429.58456321l25.47680445 44.11811025-330.93881109 191.06146016-25.47680446-44.11281041L478.30072729 429.58456321 478.30072729 429.58456321 478.30072729 429.58456321 478.30072729 429.58456321zM175.97695457 691.35899067l56.43657916-32.58254316 16.69133375 28.91177502 230.28344543-132.95442305-16.68338528-28.90647647 53.36722891-30.81538192 42.16681389 73.0312096-132.68418172 76.60792305 9.67170127 16.72842614-64.06292937 36.98587626-9.6637528-16.73504901-143.3613366 82.76119744L175.97695457 691.35899067 175.97695457 691.35899067 175.97695457 691.35899067 175.97695457 691.35899067zM376.00801927 393.29150961l68.63582498-39.63264518 25.47018029 44.13798012L123.91853879 597.66232098l-25.47018029-44.11811026 91.50295159-52.82939616-68.32584259-61.98313583c-5.55980369-4.90804638-10.5817759-5.40083827-15.06724099-1.45188163l-2.18047106 3.29057776-53.37120186 30.81538192-22.83135983-39.56376023 79.29310869-45.7872426c21.35165987-12.31846891 39.17827002-13.13316586 53.47982916-2.46925796l90.00603038 81.93325349 65.57839613-37.86415832-49.19174491-85.19336301c-17.10596788-22.58363957-10.63078971-41.85683152 19.44275445-57.89640796l89.98086197-51.94581554 23.71494176 41.08055259-60.99887767 35.21738938c-7.70583227 3.09584556-9.60149068 6.87259105-5.64061135 11.36335469L376.00801927 393.29150961 376.00801927 393.29150961 376.00801927 393.29150961 376.00801927 393.29150961zM820.83339209 434.68204326l-15.80642882-27.38305995-189.10751386 109.18384332L464.81916235 254.78390574000002c-5.27366671-9.1219458-11.6918826-10.8467174-19.22152821-5.13589677l-6.10293497 3.53167387-24.59189823-42.60264221 39.6472165-22.88037492c23.82754198-15.10433209 41.93763919-10.69570045 54.40844935 13.20867366l90.47497819 156.71440438 44.22541064-25.52714258c15.8302729-7.81445826 18.83868665-18.99500342 9.05968499-33.63303765l-65.89367704-114.11308649c-5.25644546-9.12062149-11.69320691-10.8467174-19.22285253-5.12264976l-30.50539953 17.60008408-24.59189823-42.60264221 59.47546116-34.33910731c26.69686147-19.46924847 46.44429844-14.64333407 59.20919534 14.51086267l92.23551656 159.75328637c19.44540436 26.63327504 14.5744491 46.37408916-14.6353856 59.16680439l-83.877927 48.43268721 18.44524928 31.95198264 134.20627263-77.48488082-112.40686045-247.52983188c-14.05516319-24.33358087-8.52715207-41.72303581 16.62112446-52.19088716l82.36113462-47.55440515 26.35508654 45.65344818-42.69669688 24.65548466c-11.7872616 5.44455354-14.73871306 13.2351677-8.87555117 23.36654267l6.61294812 18.50353585 32.03411331-18.49028885c22.64060185-17.1324619 39.46175708-12.65229666 50.47406404 13.46169377l76.41849066 132.37552495-50.32172278 29.0521936-62.37657448-108.0220742c-4.09997488-7.11368717-8.91794081-8.39600628-14.42210783-3.84033194l-9.14711552 5.27499103 67.32171328 151.82357795 45.74882718-26.41204882c21.03637895-17.56034304 39.38624924-13.95448436 55.04695963 10.82154769l28.94621751 36.03870921-53.37915032 30.82200475-10.08368547-10.41751193c-5.12927391-6.51889343-10.43605749-7.50977573-15.94419745-2.96867272l-24.40379016 14.08695577 15.81702589 27.39233402L820.83339209 434.68204326 820.83339209 434.68204326 820.83339209 434.68204326 820.83339209 434.68204326zM347.94803231 832.8418901c-0.99750646 4.9597101-0.7961501 13.4047302-3.18460041 14.212803-7.33358909 2.48250498-15.64746339 2.04137682-23.56922333 2.73022523 2.90641188-5.97046358 5.83004502-11.94622572 9.69686967-19.84944011C337.97297412 831.13831397 342.95785393 831.99010204 347.94803231 832.8418901L347.94803231 832.8418901 347.94803231 832.8418901 347.94803231 832.8418901zM368.62409206 813.16466241c3.46676314-1.83207199 8.56027024-0.58022241 12.95697919-0.66235439-1.25184958 3.39257962-2.49575199 6.78383492-4.23906913 11.4984747-5.89495575-0.25434441-10.40426493-0.43715392-14.92814673-0.61863913C364.41549119 819.84251996 365.59183293 814.75828691 368.62409206 813.16466241L368.62409206 813.16466241 368.62409206 813.16466241 368.62409206 813.16466241zM187.87814071 807.75190145c1.4717515-0.95378991 8.97755301 4.18210686 10.9924358 7.97077376 5.29486219 9.96843533 8.0356845 21.34636132 13.77167485 30.99156857 6.48180102 10.91560238 14.90827556 20.72109933 23.01946918 30.57560882 1.12600234 1.38299666 5.68565092 1.29424053 7.82770528 0.22652478 5.59689609-2.80440874 10.80300214-6.41159173 16.02632943-9.91147306 8.09927093-5.39553972 16.10183855-10.95269477 24.13752308-16.44361349 1.83869614 0.98690809 3.68269083 2.0029601 5.5147641 2.98854388-1.78703241 7.77736717-3.56876628 15.55870725-5.35579869 23.34932142-1.28231782-0.42390691-2.58450683-0.84118967-3.88669583-1.25847373 4.01916721 5.3452016 8.0356845 10.68245344 12.16082909 16.16542497-13.86572953 8.15490889-32.09769973-1.38299666-40.88449475 15.39576892-0.44907662 0.86503507-4.72523686-0.14571841-7.17727359-0.48616774-4.8259144-0.66897854-9.63328454-1.47837565-14.45257608-2.24273189 0.75640907-0.71931666 1.5088439-1.45188163 2.2679016-2.17252261-8.40792768-8.64902509-15.83689707-18.66117567-25.46355745-25.63576987-15.51499199-11.24413029-20.61247204-22.3822845-14.10682693-40.92953564-3.12101397-1.22403124-5.98900914-1.56580618-7.64224583-3.16473052-3.62705286-3.49325716-10.06381431-8.95105899-9.17890938-11.26267584C177.59442447 816.29230053 182.68528166 811.10606435 187.87814071 807.75190145L187.87814071 807.75190145 187.87814071 807.75190145 187.87814071 807.75190145zM700.63194322 628.9214796599999c6.455307-5.28161518 13.0073186-10.63343963 20.25215156-14.64333406 2.60835222-1.44128324 8.43972155-0.42390691 10.80300215 1.69960189 8.89409671 8.02243749 5.83004502 16.75227024-10.01347622 25.6397428-4.6934443-0.49809043-11.39514724-0.93524435-17.9776258-2.02150566-2.46925796-0.41065989-4.6934443-2.33016371-7.02493232-3.56214212C697.95868027 633.6202225100001 698.67269838 630.5190784 700.63194322 628.9214796599999L700.63194322 628.9214796599999 700.63194322 628.9214796599999 700.63194322 628.9214796599999zM927.85133567 170.45160484999997c-4.01254305 0.30865676-10.25324798-4.30795411-12.32509306-8.35758955-3.1011441-6.07776528-3.0640517-13.70278987-5.1054285-20.42966253-1.26244797-4.18872972-3.68269083-8.09927093-6.05127126-11.85084673-2.02812981-3.1978474-5.07363596-5.77440705-7.05540058-9.00934557-5.26174401-8.50860652-10.08765971-17.2887774-15.28051874-25.84904765-3.36740991-5.56510223-7.53759407-10.67053074-10.55660621-16.39327407-6.86066836-12.98082329-13.22192069-26.23321354-19.79115352-39.37962509-1.30881314 0.32852793-2.63484624 0.64380883-3.94233378 0.98425946-0.10067753-4.35166938-1.39491807-13.11329469-5.14119531-2.35003358l-7.39717551-9.95518831c-4.63118219-1.68635488-13.96110851 0.3854902-10.06381431-1.86519016-9.27296276-19.28511465-18.21210034-37.86415834-25.93780248-53.920956 2.05859806-14.08695575-2.35665773-16.64496857-9.43855233-19.11687645l-18.0730048-20.55550977-32.90047397 13.89222354c-5.24982132 1.0372475-7.06202343 6.45133277-16.39194977 10.18966155-16.88076741 1.10613247-31.97185249 2.09039063-46.80462023 3.05742884-1.50221975 6.30429006-1.94599782 15.02882426-5.59027192 22.1146931-8.38143366 16.31114209-9.91809721 16.0581233-21.40862215 0.73388928-1.86916439 3.10644265-4.64972903 5.67107961-4.92129469 8.4834368-1.29556483 12.85497604-9.58294513 17.25168628-20.8019057 19.95011766-6.81695311 1.64131401-13.49348633 4.90142352-19.51428935 8.6159082-10.3274315 6.39304619-20.17001957 12.01378638-32.95611194 13.99820093-9.88630334 1.51016822-18.62805879 10.04394445-28.03614157 15.16791851-36.85340485 20.03622386-73.78364444 39.97442012-110.65559485 59.98150004-1.43466038 0.76965609-2.68650996 1.87578853-3.90391705 4.09335073-4.71861401 1.20018586-13.97435552-0.25831865-8.21849532 6.5387633l-9.73528638 0.23314893c-0.32190377-0.01722125-8.58543867 10.53806064-8.90734372 10.51818947-4.609988-2.56463696-8.58411435 0.30998237-11.38984871 6.57055716-44.02935413 25.42646505-86.89031497 50.16938021-128.86107103 74.40360787 6.32283561 2.60835222-37.21505094 18.74330765-62.47592772 29.91193013-0.12584724 0.16293964-0.2649415 0.34707348-0.4106599 0.52458443-0.30335822 0.3854902-0.59346942 0.77627893-0.91007464 1.16309474-0.27156565-0.24772026-0.50471458-0.5060389-0.76965608-0.75905768-10.51156662 4.73186101-17.19604833 8.42647454-14.4539004 9.55115255l-12.01378637 7.28324967c-0.10200315 0.20797922-0.20268067 0.45437516-0.32322937 0.6385103-0.44112815 0.75243484-0.9418685 1.33265725-1.57242904 1.72344599-8.02906164 4.97825695-16.17204784 9.79887281-24.3600749 14.53470806-8.18670145 4.74510802-16.43698933 9.39351146-24.69919991 13.99952523-0.19605653 0.11260023-0.44245247 0.15101695-0.70209543 0.16293965-5.28691372 3.41245078-39.14117761 40.21419191-39.58230577 37.85223562-0.76435753-4.12381898-24.41571286 11.04807377-27.18965335 9.40675848-2.5328431-1.49692122-8.42647454 0.58684656-11.6918826 2.78453888-10.89175827 7.3349134-21.17547451 15.40239175-35.67309016 10.12077657-2.37520329-0.85841091-5.53330966 0.45569948-9.03319098 0.85443669 0.98690809 10.12475082-1.42803623 16.51249846-12.79801377 17.52325064-4.68682015 0.41595845-8.97755301 5.53198535-14.57444908 9.2663399 3.26673237 5.64723421 6.2618991 10.84009455 9.50743729 16.45023634-5.57702492 3.61910569-10.0253976 6.49902227-14.72414044 9.55777542 1.04784458 1.80690358 2.08509207 3.60850732 3.12631381 5.39553971l-0.1324714 0.07550784 36.13408819 62.5699824c42.3377007 73.32926927 84.6621544 146.65853724 127.1442492 220.22095542l16.8926901 29.26149844c-0.15896542 0.1324714-0.31660523 0.27156565-0.48086919 0.4106599 8.21187117 14.2008803 16.27140107 28.29446021 24.21170659 42.05288804-0.60671643 1.06109159-1.21343286 2.10231332-1.81882499 3.13956082l3.36740991 7.6250246c-4.55435005 2.33016371-7.87672037 3.86682594-10.42281048 4.5238818-2.36857914 4.07348086-4.78882329 8.26221057-7.41572106 12.79139092-3.48001014-4.66297604-6.1771185-7.66874115-8.19862416-11.0984119-14.03661634-23.74011017-27.73940751-47.68952517-41.9641332-71.32100932-6.26057478-10.38571937-14.23267415-19.78452939-20.01900263-30.38485085-2.02150565-3.70786052-3.33031881-8.76824947-3.15148222-13.17688111-0.72726513-1.19488731-1.46645296-2.40832146-2.18576962-3.60188445-1.26244797-1.2187327-2.33016371-2.59113098-3.08259854-4.16223569-1.05579305-2.20431647-2.19901663-4.37153923-3.36078706-6.51889343-7.59455635-12.72383026-15.04074697-25.52846818-22.32532094-38.42715949-2.91303475-5.16239079-3.99929604-12.29992334-3.53829802-18.5671223-1.6042229-1.8824114-3.25878391-3.73832878-4.84446125-5.64061134 1.78173387-0.95378991 3.53167388-1.98308894 5.28823803-3.01238797-0.89815325-11.75016919-9.00934557-22.15973267-20.74494343-25.07939157-4.84446125-1.19356299-9.67832411-5.44455354-12.90001693-9.57102242-4.02314144-5.16106647-5.95589226-11.90780899-9.53790554-17.49808223-13.80876725-21.65501809-29.07868762-42.47017211-41.54155062-64.86570231-9.89160189-17.73785401-16.52574547-37.30248147-24.52301324-56.10805125-2.50237485-5.8750846-5.83666787-11.71837662-6.79045908-17.88887097-1.11805387-7.25278141-0.48086918-14.89105431 0.11260022-22.31207392 1.29556483-16.18529485-2.03872689-33.72841664 12.42047205-46.41250588 15.5269147-13.63787914 30.21396401-28.44415284 46.91059631-40.44734084 18.04121223-12.96360205 37.46674544-24.29648847 57.31486124-34.30863905 11.25075444-5.69889793 22.36903621-17.11259073 37.08125523-8.12444063 6.58247856-17.86370127 20.25877571-22.21007209 34.84514621-11.05469663 2.16059991-5.05376479 2.96204986-11.71175248 6.64474067-14.34659871 4.18210686-2.9686727 11.91310883-0.76303193 16.35485735-3.55022074 9.93796707-6.2857445 21.06154866-12.69203769 27.56189655-21.94512928 9.18553223-13.08282643 13.88560069-29.68540534 34.61862142-27.8586306 1.08493699 0.10862599 2.44938681-0.70606965 3.36078705-1.46512865 11.14875131-9.23587164 23.57584621-17.3722337 32.94286495-28.16198881 7.68861103-8.8437573 19.49971673-8.49005967 26.3034228-14.81289658 9.67832411-8.99609856 19.46394992-11.96609687 31.611532-12.14758207 2.84944961-0.04371526 6.05127126-2.11688465 8.4330974-4.0430126 13.89089923-11.27062431 27.6307815-22.36241334 47.5742763-16.14555383 2.08509207 0.65705585 6.53214044-1.1697176 7.60515473-3.10114409 7.44883923-13.52660451 13.72663527-10.58707444 20.22168329 0.60671642 0.96041406 1.68635488 3.10776697 2.70373121 4.69344432 4.0297643 0.01987117-0.93524435 0.01987117-1.86916439 0.03179256-2.81103289 7.37730435-0.76435753 14.74401161-1.52341523 22.99429949-2.38182744 3.03888198-2.6785615 6.63149366-8.34434256 10.54203486-8.57219165 3.80986367-0.22122623 7.92838412 5.13589677 11.91310884 8.04893152 3.36873552-14.5744491 8.2767819-29.01510247 9.6399074-43.78560811 1.49162267-16.11376125 7.83962798-28.1725872 21.13175795-36.58846335 11.60975062-7.35213465 23.80767083-13.76372638 35.5207476-20.95822121 21.64707091-13.31729968 45.18582471-3.48133575 67.71912616-5.32003189 12.29859903-0.97895963 16.78406412-1.65456101 16.50719993-13.92269179-0.10862599-4.9583858-0.63851029-10.700999 1.56050763-14.69367219 2.25465459-4.11189628 7.2885495-8.12311633 11.72499948-8.98285155 2.16589975-0.41595845 6.37979918 6.07114111 8.45164424 10.0638143 1.42803623 2.78056465 0.77098039 6.62089527 1.04254605 9.9883065 1.43995893 0.01987117 2.86667086 0.02649402 4.31457697 0.03046823 0.39741289-7.52964561 0.60671643-15.08446223 1.28761765-22.59556226 0.34177494-3.77806981 0.36694464-8.64240223 2.6414704-10.96594179 5.77440705-5.90820277 12.0416047-12.09856827 19.36194677-15.61699513 32.14803915-15.47657527 57.35327795-43.84654461 94.08083557-50.71251152 0.40403575-0.06888497 0.77627893-0.34707348 1.14322357-0.54975416 8.26221057-4.74510802 14.20750445-2.26127874 16.68868383 3.88007296 10.12077658 0.03046826 19.48249548 2.47588082 26.5206748-0.52591006 8.75500246-3.75157579 14.32010468-2.57655965 20.12630432 3.42967203 15.01557725 15.54811017 31.71088523 29.88676041 44.44001403 47.13314814 13.24179185 17.94053469 22.18622669 38.98221348 33.86751089 58.1428039 5.80619963 9.51406015 12.02040923 19.95011765 20.73169644 26.30474713 14.85661183 10.82022337 19.9686645 26.35508653 22.41937561 41.99062722 4.09467505 26.22129083 23.10822403 45.3050491 27.01214238 65.5134854-1.79365657 12.46948586-3.94100946 21.00591071-3.98472471 29.54630979-0.03311818 7.69390957 1.8824114 15.48982228 3.59261038 23.07510714C941.25606718 166.90005983000003 933.97944035 169.96411151999996 927.85133567 170.45160484999997L927.85133567 170.45160484999997 927.85133567 170.45160484999997 927.85133567 170.45160484999997zM527.3586765 719.72233584c-0.92199734-0.44775102-3.44291904-1.63601546-7.81445827-3.69461353 4.36491638-2.51429754 7.55481532-4.36491638 11.01098136-6.35595377 0.99088231 2.50237485 1.80027941 4.51725763 3.07597439 7.70715658 5.50813996-7.48593035 10.35260121-14.06178606 15.19971108-20.65088876 0.89550333 0.48086918 1.78703241 0.96041406 2.6785615 1.43466039 0.25831865 2.99516672 0.50471458 5.98900914 0.81469566 9.53260571 14.86323599-6.9613459 28.55277886-14.22605002 42.88613055-19.75406113 8.68611749-3.3554885 18.32602489-3.78999251 16.67146387-16.99999049-0.28481266-2.27320014 2.25465459-5.5015171 4.3079541-7.39717552 21.0430031-19.29306181 46.84171133-23.70831759 74.09892536-23.11484817 1.19356299 0.0238454 2.35003358 1.95792053 3.83370776 3.27733076-1.02400049 1.82544913-1.46512864 3.72110753-2.64544333 4.5609729-29.06544061 20.65088876-57.97853994 41.52300506-87.47318729 61.53538482-8.52847638 5.77970561-18.4717433 11.77004035-28.29446022 12.84967749-14.67645094 1.61746991-26.63327504 5.96251513-36.81631372 16.51779701-3.08259855 3.19122454-8.12973919 4.42320297-11.71837663 7.24615855-6.15327311 4.83916271-11.82037846 10.27709207-17.74580248 15.40106746-9.73396208 8.42117599-18.28760817 20.27069711-29.60062343 24.28324145-13.62595773 4.83253856-30.48685398 0.48616773-39.26835047 17.12583905-1.61084575 3.06272738-5.60881749 4.76232927-8.14298619 7.44089077-2.09701477 2.22418634-3.65222258 4.9597101-5.44455353 7.47268333-2.1341059-2.65869163-5.14252093-5.00872521-6.22348368-8.04098434-3.1011441-8.71791005-7.23821009-14.56782494-16.89798865-16.57608359l22.59688658-15.47790088C464.75690154 764.94657727 498.62971228 746.39932615 527.3586765 719.72233584L527.3586765 719.72233584 527.3586765 719.72233584 527.3586765 719.72233584zM1075.04505575 416.17320886c-5.95059242 4.30795411-10.32875581 11.15537415-14.49761566 17.46098982-7.63562299 11.5594112-10.92884939 26.83992996-28.39381344 29.36085165-2.36328059 0.33515077-6.02742586 6.69640441-5.44455353 9.5206843 1.76053839 8.65299932-3.22301712 10.83347039-9.42000547 13.56766985-5.64061135 2.49575199-10.7142473 6.27249749-16.15880083 9.24911867-15.74814093 8.63577808-31.33996635 17.65042349-47.51068988 25.4463362-5.69757362 2.75407063-13.17688112 4.15561284-19.33677837 3.14485936-18.43200097-3.03888198-28.66670339 2.28644715-36.38048413 18.3392719-3.03225913 6.33608391-9.15903822 12.34231429-15.37589774 15.76138793-10.50494246 5.79295262-22.60748497 8.62915521-33.30848396 14.13729518-15.54148602 7.99064493-30.49347684 17.1695543-45.57131621 26.04510416-10.78975513 6.34933092-21.33841286 11.11828305-29.10915586 0.98690808-3.62572855 4.29470709-6.23540509 9.57102243-10.44268165 11.74884489-4.39670894 2.2692272-10.43605749 2.43216556-15.57195427 1.8956584-5.81812231-0.61334058-11.45343383-3.02563498-17.16293015-4.6563519 2.46925796-4.14369014 4.93851593-8.29400315 7.89659025-13.25901309-0.09537899-0.1563155-0.19075798-0.32190377-0.27818851-0.48616773l65.55190211-42.70994389 41.04213586-33.82776987 63.95430338-27.58574064c0.18280953-0.09537899 0.34574916-0.19605653 0.53120859-0.30468252l1.15647059-0.68222556 68.1933712-40.61822894c7.80121125 5.65385836 18.93274131 2.18047107 25.96827074-7.83962798 4.1622357-5.91879986 11.24413029-9.93664275 17.39740339-14.28301229 4.35166938-3.06935024 9.24911866-5.43793067 14.0803329-7.76279455 7.42896807-3.58201329 15.00233024-6.84212281 24.05539109-10.92222651 0.27818851-12.16745196-8.87555117-18.42140388-19.5328349-22.81148998 0.59346942-7.07527044 1.14984772-13.61933359 1.87578854-22.36241333-0.54975417 0.20268067-1.08096276 0.42390691-1.60422289 0.64513315-0.25169449-6.19168982-2.51429754-19.76730814-17.01853736-24.58792399-9.67699981-16.76551726-19.29836165-32.69646899-28.11032639-49.05662489-3.39257962-6.30561566-4.7769006-13.67762017-7.44221508-20.41244129-0.43053107-1.09155984-0.89815325-2.17782115-1.3525284-3.25878392-14.42873069-11.55411266-21.67356494-26.39350325-21.80603503-45.90646698-0.05696227-7.08851745-5.28823804-14.63670991-9.52068431-21.06684721-4.93984023-7.52434706-11.38322454-14.03661634-19.48911963-23.76660548 12.29330049 1.29556483 21.81928205-0.15101695 28.44017861 3.57538914 10.48772123 5.8750846 20.05079649 14.28963643 28.07853253 23.33607441 10.15257044 11.40971857 21.19402005 23.41158224 26.70216002 37.20842809 5.12927391 12.83510618 7.75087314 26.75249942 9.9180972 40.70698379 2.11026178 3.07597439 4.28808294 6.11485638 6.64474067 8.9881514 9.43192817 11.52231881 17.73917833 22.92541452 17.79481629 38.64308718 0.00662415 3.55022073 1.17634174 7.46606048 2.95675001 10.56190473 8.33374417 14.47244595 17.17617716 28.6547807 25.62252156 43.06364153C1092.5948017 397.6577503 1090.19972725 405.20726706 1075.04505575 416.17320886L1075.04505575 416.17320886 1075.04505575 416.17320886 1075.04505575 416.17320886zM1075.04505575 416.17320886"  horiz-adv-x="1024" />

    
    <glyph glyph-name="right" unicode="&#58916;" d="M306.86497-61.52193599999998c-11.984962 0-23.955598 4.631484-33.007765 13.863752-17.863856 18.225083-17.571191 47.487547 0.653893 65.35038l374.97316 367.491769L274.512121 752.682897c-18.225083 17.863856-18.517749 47.125297-0.653893 65.35038 17.865903 18.225083 47.120181 18.517749 65.343217 0.653893l408.648121-400.496463c8.871041-8.691963 13.863752-20.586874 13.863752-33.007765 0-12.412704-4.992711-24.307615-13.863752-32.997532L339.201445-48.31207600000005C330.210677-57.13195299999995 318.532707-61.52193599999998 306.86497-61.52193599999998L306.86497-61.52193599999998zM306.86497-61.52193599999998"  horiz-adv-x="1024" />

    
    <glyph glyph-name="cha1" unicode="&#58955;" d="M328.683652 588.412736l387.722125-387.722125-21.089429-21.089429-387.722125 387.722125 21.089429 21.089429ZM695.316348 588.412736l21.089429-21.089429-387.722125-387.722125-21.089429 21.089429 387.722125 387.722125ZM512-128C229.684194-128 0 101.684194 0 384 0 666.315806 229.684194 896 512 896c282.315806 0 512-229.684194 512-512C1024 101.684194 794.315806-128 512-128zM512 866.174757C246.127845 866.174757 29.825243 649.872155 29.825243 384S246.127845-98.174757 512-98.174757 994.174757 118.127845 994.174757 384 777.872155 866.174757 512 866.174757z"  horiz-adv-x="1024" />

    
    <glyph glyph-name="iconup" unicode="&#59039;" d="M703.280488 530.488329c-4.329609-10.697643-13.921058-17.040095-25.236777-17.040095L544.234145 513.448234 544.234145 60.890045c0-17.838274-14.398942-32.296567-32.232099-32.296567-17.838274 0-32.236192 14.458293-32.236192 32.296567L479.765855 513.448234l-134.206608 0c-11.314697 0-20.906146 6.342452-25.234731 17.040095-4.330632 10.69969-2.081405 22.148439 5.92085 30.334889l166.241208 170.104189c5.333472 5.459339 11.773138 8.1711 19.315928 8.1711 7.543813 0 13.982456-2.742461 19.316951-8.201799l166.241208-170.068374C705.358823 552.641885 707.610096 541.186995 703.280488 530.488329z"  horiz-adv-x="1024" />

    
    <glyph glyph-name="kmbqiache" unicode="&#58948;" d="M656.878933 292.488533C639.3344 292.488533 624.503467 307.575467 624.503467 325.358933 624.503467 370.346667 624.503467 415.317333 624.503467 460.305067 624.503467 502.6816 689.271467 502.613333 689.271467 460.305067 689.271467 426.274133 689.271467 392.260267 689.271467 358.229333 730.641067 358.229333 772.010667 358.229333 813.380267 358.229333 855.125333 358.229333 855.057067 292.488533 813.380267 292.488533 761.224533 292.488533 709.051733 292.488533 656.878933 292.488533ZM912.3328 200.942933C894.446933 200.942933 879.957333 215.671467 879.957333 233.8304L879.957333 414.600533C879.2576 419.2256 874.683733 443.0848 852.3776 454.894933 832.597333 465.373867 777.352533 490.717867 696.814933 526.2336 656.162133 544.1536 629.896533 584.823467 629.896533 629.8112L629.896533 680.686933C629.8112 699.3408 622.1824 774.8608 588.526933 774.8608L201.762133 774.8608C193.757867 774.144 144.196267 766.0032 144.196267 681.301333L144.196267 101.802667C145.015467 92.586667 148.0704 81.493333 150.971733 76.7488L227.515733 76.7488C241.578667 124.7232 284.910933 160.034133 336.674133 160.034133 388.437333 160.034133 431.786667 124.7232 445.8496 76.7488L577.058133 76.7488C591.138133 124.706133 634.4704 160 686.216533 160 737.962667 160 781.294933 124.706133 795.374933 76.7488L856.558933 76.7488C860.757333 76.544 869.614933 77.499733 874.359467 82.193067 878.984533 86.766933 879.957333 95.658667 879.957333 102.314667 879.957333 120.490667 894.446933 135.202133 912.3328 135.202133 930.218667 135.202133 944.708267 120.490667 944.708267 102.314667 944.708267 66.542933 930.4576 45.448533 918.493867 34.065067 896.426667 13.056 868.386133 10.973867 858.129067 10.973867 856.302933 10.973867 855.057067 11.042133 854.4768 11.076267L795.409067 11.008C781.346133-36.983467 737.9968-72.311467 686.216533-72.311467 634.436267-72.311467 591.086933-37.000533 577.024 11.008L445.8496 11.008C431.786667-36.9664 388.437333-72.277333 336.674133-72.277333 284.910933-72.277333 241.578667-36.9664 227.515733 11.008L147.797333 11.008C104.448 11.008 82.261333 54.8864 79.496533 98.389333L79.445333 681.301333C79.445333 802.952533 158.5152 838.690133 200.311467 840.584533L588.526933 840.6016C672.3072 840.6016 694.664533 740.078933 694.664533 680.686933L694.664533 629.8112C694.664533 611.0208 705.6384 594.039467 722.619733 586.5472 780.561067 560.981333 855.296 527.5136 882.3296 513.194667 927.522133 489.2672 942.7456 442.7776 944.605867 419.089067L944.708267 416.4608 944.708267 233.8304C944.708267 215.671467 930.218667 200.942933 912.3328 200.942933ZM686.216533-6.570667C713.591467-6.570667 735.863467 16.042667 735.863467 43.844267 735.863467 71.645867 713.591467 94.2592 686.216533 94.2592 658.8416 94.2592 636.5696 71.645867 636.5696 43.844267 636.5696 16.042667 658.8416-6.570667 686.216533-6.570667ZM336.674133-6.519467C364.066133-6.519467 386.338133 16.093867 386.338133 43.8784 386.338133 71.68 364.066133 94.293333 336.674133 94.293333 309.2992 94.293333 287.0272 71.68 287.0272 43.8784 287.0272 16.093867 309.2992-6.519467 336.674133-6.519467Z"  horiz-adv-x="1024" />

    
    <glyph glyph-name="sousuo" unicode="&#58902;" d="M1003.971765-107.94164699999999C990.72-121.19341199999997 973.342118-127.81929400000001 955.994353-127.81929400000001 938.616471-127.81929400000001 921.238588-121.19341199999997 907.986824-107.94164699999999L674.816 125.28941199999997C602.804706 73.06541200000004 516.698353 44.48376499999995 426.044235 44.48376499999995 426.014118 44.48376499999995 425.984 44.48376499999995 425.953882 44.48376499999995 191.307294 44.48376499999995 0.331294 235.45976499999995 0.271059 470.226824L0.271059 470.256941C0.331294 704.963765 191.277176 895.939765 425.923765 895.969882 539.648 895.969882 646.535529 851.666824 726.919529 771.252706 807.303529 690.838588 851.576471 583.951059 851.546353 470.256941 851.576471 379.542588 822.994824 293.376 770.800941 221.30447100000004L1003.971765-11.926588000000038C1030.475294-38.43011799999999 1030.475294-81.40800000000002 1003.971765-107.94164699999999ZM648.372706 692.675765C588.950588 752.097882 509.952 784.835765 425.923765 784.835765 252.536471 784.805647 111.435294 643.674353 111.375059 470.226824 111.435294 296.74917600000003 252.566588 155.617882 425.984 155.617882 425.984 155.617882 426.014118 155.617882 426.014118 155.617882 502.211765 155.617882 574.102588 182.784 631.145412 232.11670600000002 634.398118 239.16423499999996 638.704941 245.82023500000003 644.487529 251.63294099999996 650.300235 257.415529 656.956235 261.692235 663.973647 264.975059 713.306353 322.078118 740.472471 393.999059 740.442353 470.256941 740.472471 554.285176 707.764706 633.253647 648.372706 692.675765Z"  horiz-adv-x="1025" />

    
    <glyph glyph-name="unfinish" unicode="&#58883;" d="M513.517 713.885c105.082 0 198.288-50.814 256.422-129.385l40.736-10.909c-60.62 100.663-171.087 168.048-297.155 168.048-60.895 0-118.201-15.742-168.048-43.22l40.597-10.909c39.214 16.985 82.297 26.373 127.45 26.373zM722.991 731.973l22.231-17.951 6.905 27.066 24.993 14.638-24.993 14.638-6.905 27.066-22.231-17.951-29.135 2.209 11.184-25.684-11.184-25.684 29.135 1.657zM336.633 792.454l-22.922 15.879-5.109-28.308-23.473-17.537 25.269-12.153 8.425-26.789 20.714 20.851 28.722 0.83-12.428 24.993 9.39 27.341-28.583-5.109zM551.214 831.393l-16.985 22.095-13.395-25.408-27.616-9.527 20.298-19.194-0.139-28.031 25.959 13.532 27.616-7.732-4.281 27.478 17.123 23.198-28.583 3.589zM861.627 657.408l-24.027 16.57-3.453-27.755-22.508-16.57 26.098-12.98 10.081-26.927 19.609 19.746 28.859-0.139-14.084 25.269 7.732 26.789-28.308-4.004zM1173.972 447.658l-1206.023 323.117c-29.55 7.87-60.067-9.666-67.938-39.216l-86.164-321.599c-7.87-29.55 9.666-60.067 39.216-67.938l1206.023-323.116c29.55-7.87 60.067 9.666 67.938 39.216l86.164 321.598c8.007 29.55-9.529 60.067-39.216 67.938zM1182.809 373.37l-78.985-294.807c-5.938-22.095-28.859-35.349-50.954-29.412l-1179.097 316.073c-22.095 5.938-35.349 28.859-29.412 50.954l78.985 294.807c5.938 22.095 28.859 35.349 50.954 29.412l1179.235-316.073c22.095-5.801 35.21-28.583 29.271-50.954zM513.517 894.359c231.153 0 425.573-157.001 482.602-370.203l30.794-8.147c-54.819 232.671-263.877 405.966-513.258 405.966-151.341 0-287.628-63.794-383.873-165.7l30.655-8.147c90.306 90.307 215.135 146.231 353.079 146.231zM640.832 102.173c-38.94-16.985-82.022-26.511-127.314-26.511-105.082 0-198.288 50.814-256.422 129.385l-40.736 10.909c60.62-100.663 171.087-168.048 297.152-168.048 60.897 0 118.203 15.742 168.05 43.22l-40.735 11.046zM343.26 44.591999999999985l-22.095 17.951-6.905-27.066-24.717-14.638 24.717-14.638 6.905-27.066 22.095 17.951 28.997-2.071-11.184 25.684 11.184 25.684-28.997-1.795zM513.38-40.88099999999997l16.846-22.095 13.257 25.269 27.478 9.527-20.159 19.332 0.139 27.892-25.684-13.532-27.341 7.732 4.281-27.478-17.123-23.198 28.308-3.453zM162.784 133.519l22.645-18.227 5.386 27.478 23.613 14.913-24.993 14.775-8.009 27.341-20.851-18.366-28.583 2.071 12.153-25.959-9.666-26.098 28.308 2.071zM513.517-104.67600000000004c-231.153 0-425.573 157.001-482.602 370.203l-30.794 8.147c54.819-232.671 263.878-405.966 513.258-405.966 151.341 0 287.628 63.794 383.873 165.7l-30.655 8.147c-90.169-90.307-215.136-146.231-353.079-146.231zM714.154-2.769999999999982l22.784-15.879 4.971 28.031 23.198 17.398-25.13 12.153-8.425 26.789-20.298-20.714-28.446-0.83 12.428-24.854-9.114-27.341 28.031 5.246zM68.866 401.731l52.601 87.668 47.469-12.308-59.14-102.86c-8.3-18.622-20.249-24.618-35.838-17.979l-42.588 11.043 8.837 34.077 15.815-4.1c6.06-3.322 10.336-1.839 12.847 4.461zM96.359 582.925l9.783 37.732 108.31-28.09 5.365 20.694 48.682-12.619-5.365-20.694 108.31-28.09-9.778-37.732-108.31 28.09-8.837-34.063 115.614-29.984-9.468-36.51-115.62 29.977-38.814-149.692-48.682 12.619 38.814 149.692-111.965 29.03 9.468 36.517 111.965-29.03 8.837 34.063-108.31 28.09zM243.888 330.374l2.934 126.525 51.107-13.249-2.977-96.639c-2.525-9.742 2.085-15.278 13.886-16.594l12.175-3.153-9.468-36.51-42.597 11.052c-18.678 4.835-27.029 14.367-25.063 28.569zM377.58 415.191l276.263-71.632-9.154-35.286-54.764 14.203-15.15-58.426c-1.881-3.853 0.141-6.102 6.045-6.753l48.676-12.619-8.527-32.861-71.795 18.617c-23.749 5.309-31.871 17.357-24.384 36.197l17.675 68.154-52.338 13.573-46.385-73.705c-7.805-10.082-20.241-12.93-37.275-8.512l-63.282 16.409 8.208 31.637 42.597-11.052 2.114-1.844c3.845-1.867 7.204-0.575 10.102 3.881l35.244 55.803-73.011 18.932 9.141 35.279zM389.343 435.526l9.149 35.294 264.089-68.479-9.154-35.294-264.082 68.479zM410.759 548.171l114.398-29.666 3.463 13.397 51.116-13.257-3.478-13.391 105.885-27.459-15.15-58.418-42.597 11.052 6.009 23.126-183.775 47.652-5.995-23.126-45.027 11.673 15.15 58.418zM882.548 414.145l5.677 21.91 45.027-11.673-5.677-21.91 19.471-5.049c4.654-2.078 8.117-0.389 10.414 5.09l4.955 9.107 42.597-11.052-13.078-30.381c-6.074-20.078-18.021-26.075-35.829-17.985l-36.51 9.473-17.498-117.558 7.303-1.894c4.654-2.085 7.721-0.275 9.198 5.409l22.396 86.41 40.172-10.414-27.453-105.879c-2.624-20.114-13.357-26.413-32.189-18.927l-25.558 6.624-1.034-14.014c-2.109-8.117 1.394-12.924 10.547-14.431l34.063-8.837-9.46-36.51-65.714 17.038c-19.308 2.419-26.413 13.347-21.373 32.825l30.345 192.146-107.089 27.77-6.633-25.552 66.931-17.357c22.54-3.245 29.644-15.922 21.322-38.001l-33.129-127.781c-3.245-22.54-15.935-29.631-38.001-21.322l-47.46 12.308 8.837 34.077 24.327-6.314c6.278-2.502 10.372-0.099 12.258 7.204l23.67 91.279c3.958 11.963-0.249 19.095-12.619 21.457l-35.294 9.149-32.5-125.341c-4.038-18.862-15.667-25.366-34.933-19.519l-31.645 8.199 8.837 34.077 4.865-1.264c6.285-2.502 10.372-0.099 12.258 7.21l54.283 209.319 150.915-39.124z"  horiz-adv-x="1024" />

    
    <glyph glyph-name="icon04" unicode="&#58957;" d="M512.38421731 573.18397497c-138.21928675 0-250.71813177-112.51980288-250.71813176-250.73908964 0-138.17620821 112.49768107-250.72511773 250.71813176-250.72511772 138.21695886 0 250.72744675 112.54890951 250.72744676 250.72511772C763.11282802 460.66417209 650.60117618 573.18397497 512.38421731 573.18397497L512.38421731 573.18397497zM512.38421731 117.29958911999995c-113.61074745 0-205.14296718 91.57879125-205.14296718 205.14762411 0 113.58047573 91.53105579 205.15577401 205.14296718 205.155774 113.60841842 0 205.15461006-91.57529827 205.15461007-205.155774C717.53882738 208.87954546000003 625.99379968 117.29958911999995 512.38421731 117.29958911999995L512.38421731 117.29958911999995zM512.38421731 482.00453575c-1.04088007 0.06985728-2.12600263 0.06985728-3.20646826 0-12.5720576-0.88719246-22.06455581-11.80478805-21.16339143-24.39081756 0.87205661-12.59185152 11.81177287-22.07852658 24.36985969-21.17736221 63.23752163 0 114.00427861-50.76442909 114.00427862-113.98797881-0.21073693-12.57322269 9.81500701-22.96455509 22.44295111-23.15433528 12.55808683-0.1979301 22.92031261 9.85110073 23.13570645 22.45110101 0 0.21655893 0 0.45523968 0 0.70323427C671.9648256 410.30957511 600.27335794 482.00453575 512.38421731 482.00453575L512.38421731 482.00453575zM877.08916395 675.77699783l-145.31799382 0-62.31190642 124.30363307c-3.89689571 7.62846094-11.68486514 12.45097074-20.29133368 12.45097073l-273.55461518 0c-0.71837013 0.04773661-1.39133269 0.04773661-2.15278138 0-7.77516259-0.74631282-14.63868189-5.4698587-18.16882403-12.45097073l-62.29444267-124.30363307-145.32032284 0c-75.41604807 0-136.78371157-61.40375723-136.78371158-136.77090361L10.89323122 105.88018347000002c0-75.36598357 61.3676635-136.72898901 136.78371157-136.72898902l729.41222116 0c75.41488299 0 136.78487552 61.36067755 136.78487552 136.72898902L1013.87403947 539.0060930899999C1013.87403947 614.37207666 952.50637597 675.77699783 877.08916395 675.77699783L877.08916395 675.77699783zM968.2557952 105.88018347000002c0-50.90414365-40.21708003-91.15149539-91.16546731-91.1514954l-729.41222115 0c-50.9611941 0-91.15033145 40.24735175-91.15033145 91.1514954L56.52777529 539.0060930899999c0 50.89017287 40.18913621 91.16546731 91.15033145 91.1654673l159.56430848 0c8.63441237 0.07567929 16.49573205 5.04139776 20.3053056 12.83751708l61.91604622 123.94037248 245.83857152 0 61.91488227-123.94037248c3.81306653-7.79611933 11.67089323-12.76183779 20.31927752-12.83751708l159.5526656 0c50.94838727 0 91.16546731-40.27529443 91.1654673-91.1654673L968.25463125 105.88018347000002 968.2557952 105.88018347000002zM141.99634717 791.70701995L185.19518549 791.70701995 185.19518549 748.50585259 141.99634717 748.50585259 141.99634717 791.70701995Z"  horiz-adv-x="1024" />

    
    <glyph glyph-name="nan2" unicode="&#58974;" d="M890.310162 710.381465c-0.042979 3.656273-1.220804 6.973832-2.142803 10.374278 6.890944 14.913665 4.369517 32.93204-8.108678 45.198411-12.471033 12.265348-30.912034 14.743796-46.11734 7.939833-0.633427 0.042979-1.177825 0.334621-1.808182 0.334621l-190.698227-2.226714c-22.557762-0.208754-41.037648-18.648732-41.206494-41.206494-0.208754-22.553669 17.892509-40.659025 40.450271-40.49018l105.306394 1.217734-99.044784-97.283674c-2.647293-2.601244-4.203742-5.753027-5.968945-8.775874-51.703569 33.137725-113.368 52.503794-179.733501 52.503794-182.089152 0-329.689814-144.95644-329.689814-323.767941 0-178.854481 147.600663-323.81092 329.689814-323.81092 182.12906 0 329.732793 144.95644 329.732793 323.81092 0 85.392856-33.94102 162.80597-88.966241 220.688261 1.00898 0.799202 2.269693 1.177825 3.191692 2.099824l106.692974 104.758925 1.343601-121.307833c0.208754-22.557762 18.101263-41.037648 39.98569-41.246403 21.887496-0.168846 39.445384 17.932418 39.232536 40.49018L890.310162 710.381465zM708.516746 314.200284c0-134.12065-110.680798-242.87047-247.279896-242.87047-136.556119 0-247.276826 108.74982-247.276826 242.87047 0 134.11758 110.720707 242.824421 247.276826 242.824421C597.835947 557.024705 708.516746 448.317864 708.516746 314.200284z"  horiz-adv-x="1024" />

    
    <glyph glyph-name="jia" unicode="&#59103;" d="M512 896C230.4 896 0 665.6 0 384s230.4-512 512-512 512 230.4 512 512S793.6 896 512 896z m317.44-522.24c0-30.72-20.48-51.2-51.2-51.2h-204.8v-204.8c0-30.72-20.48-51.2-51.2-51.2h-20.48c-30.72 0-51.2 20.48-51.2 51.2v204.8h-204.8c-30.72 0-51.2 20.48-51.2 51.2v20.48c0 30.72 20.48 51.2 51.2 51.2h204.8v204.8c0 30.72 20.48 51.2 51.2 51.2h25.6c30.72 0 51.2-20.48 51.2-51.2v-204.8h204.8c30.72 0 51.2-20.48 51.2-51.2v-20.48z"  horiz-adv-x="1024" />

    
    <glyph glyph-name="account" unicode="&#58882;" d="M993.71007969-66H62v23.89580948c0 144.28086065 273.61268437 261.60815391 348.24462099 276.55719169a108.94677276 108.94677276 0 0 1 6.22876553 31.5968291 332.04983027 332.04983027 0 0 0-74.29218574 138.5050957 79.27519834 79.27519834 0 0 0-37.59909434 46.20611602c-11.32502871 31.8233294-12.57078164 75.76443984 10.07927491 104.30351103v1.47225323c-4.30351084 39.8640999-15.62853867 145.86636445 46.77236719 215.1755376C398.46659082 813.04869786 454.41223086 834 527.79841455 834s129.44507344-20.95130215 166.47791572-62.28765615c62.40090586-69.53567344 50.96262744-175.53793887 46.65911749-215.1755376v-1.35900352c22.65005654-28.42582148 21.85730508-72.36693106 10.19252548-104.19026044a79.27519834 79.27519834 0 0 0-37.59909433-46.31936573A332.16307998 332.16307998 0 0 0 639.57644404 266.04983027000003a106.7950169 106.7950169 0 0 1 6.22876553-31.71007969c74.63193662-14.94903779 348.24462099-132.27633106 348.24462012-276.55719081z m-879.9546999 47.67836924H941.9546999c-12.79728193 39.52434903-55.94564003 83.35220801-124.57531143 126.04756464-72.14043076 44.73386191-153.11438261 75.42468896-184.03170995 80.74745245-37.71234404 6.00226523-42.24235518 62.74065674-42.46885635 86.74971679v10.0792749l7.13476757 7.13476846c0.56625117 0.56625117 58.89014737 59.45639854 71.34767842 135.90033927l3.2842582 20.04530009h20.27180127c2.60475644 0 11.32502871 9.17327285 15.62853868 27.18006768 5.77576406 22.65005654 2.37825615 44.50736162-7.92751993 53.34088359l-8.94677255 7.58776904v11.32502872c0 3.17100761 0.67950175 7.92751992 1.2457538 13.92978427 4.07701055 37.25934346 13.47678369 124.57531143-34.7678376 178.2559459-27.63306914 30.80407676-71.6874293 46.43261631-130.91732665 46.43261631S424.40090557 770.57984151 396.88108701 739.88901445C348.74971719 686.77463203 358.14949033 598.89241201 362.11325029 561.51981885c0.67950175-6.11551494 1.13250323-11.32502871 1.24575293-14.04303487v-11.32502871l-8.94677255-7.58776904c-10.30577607-8.72027138-13.59003428-31.14382763-7.92751905-53.22763301 4.64326172-18.12004541 13.02378222-26.72706709 15.74178926-27.29331825h20.27180039l3.17100761-20.0453001c12.45753106-76.21744042 70.78142724-135.10758779 71.34767842-135.90033927l7.13476846-7.02151787v-10.0792749c0-24.12231065-4.7565123-80.86070214-42.46885635-86.74971679-30.80407676-4.86976201-111.77802949-35.56058906-183.80520967-80.18120127-68.1766708-42.92185693-111.32502803-86.86296738-124.12230995-126.38731553z"  horiz-adv-x="1060" />

    
    <glyph glyph-name="safe" unicode="&#58897;" d="M871.58 729.9a31.8 31.8 0 0 1-6.6-0.72c-14.46-3-32.82-5.52-54.48-5.52a327 327 0 0 0-102.78 17.34C627.02 767.64 565.04 818.58 534.02 848.04A29.04 29.04 0 0 1 513.92 856.2a30.72 30.72 0 0 1-22.32-9.84A389.04 389.04 0 0 0 317.18 741c-43.92-12.66-80.22-16.86-109.14-16.86a246.6 246.6 0 0 0-50.82 4.92 29.64 29.64 0 0 1-35.22-29.4v-339c0-212.52 165.48-387.72 381.18-447.6a32.4 32.4 0 0 1 17.64 0c212.1 61.14 381.18 235.14 381.18 447.6V700.08a30 30 0 0 1-30.42 29.82z m-8.58-369.24c0-181.08-144.3-349.26-351.18-409.56-209.94 58.98-350.82 223.38-350.82 409.56V688.74c14.88-2.4 30.6-3.6 47.04-3.6 37.2 0 77.58 6.18 120 18.36a431.52 431.52 0 0 1 186 109.92c34.44-31.62 98.76-82.2 181.44-109.44 38.7-12.78 77.4-19.32 115.02-19.32 18.3 0 36.24 1.56 52.5 4.5v-328.5zM694.04 521.8199999999999L482.24 286.79999999999995 377.24 380.64a19.56 19.56 0 0 1-26.1-28.98l119.64-106.92c7.92-7.2 20.34-6.48 27.54 1.44l224.82 249.54a19.56 19.56 0 0 1-1.5 27.54 19.56 19.56 0 0 1-27.54-1.44z"  horiz-adv-x="1024" />

    
    <glyph glyph-name="cha" unicode="&#58909;" d="M461.113029 384.254803L266.342044 579.025789c-13.9712 13.9712-13.9712 36.622082 0 50.593281s36.622082 13.9712 50.593282 0l194.770985-194.770985 194.770985 194.770985c13.9712 13.9712 36.622082 13.9712 50.593282 0s13.9712-36.622082 0-50.593281L562.29857 384.254803l194.770985-194.770985c13.9712-13.9712 13.9712-36.622082 0-50.593282s-36.622082-13.9712-50.593282 0L511.706311 333.661521 316.934303 138.890536c-13.9712-13.9712-36.622082-13.9712-50.593282 0s-13.9712 36.622082 0 50.593282l194.772008 194.770985z"  horiz-adv-x="1024" />

    
    <glyph glyph-name="note" unicode="&#59013;" d="M790.25 505.178c0 183.225-147.178 230.288-230.902 242.239 4.771 8.037 7.59 17.718 7.59 28.057 0 0.022-0 0.043-0 0.065 0 30.877-25.061 55.92-55.97 55.92-30.912 0-55.988-25.042-55.988-55.923-0-0.018-0-0.039-0-0.060 0-10.29 2.795-19.928 7.667-28.195-83.825-11.51-231.287-58.305-231.287-241.935 0-149.73-14.832-362.389-144.208-362.389l16.296-44.745s19.741-7.426 46.12 0h160.41c16.88-98.764 93.604-162.942 200.827-162.942s183.953 64.179 200.828 162.942h159.203c26.986-7.855 47.327-0.050 47.327-0.050l16.295 44.794c-120.79 0-144.207 198.759-144.207 362.223zM282.685 505.575c0 177.742 185.69 196.185 227.717 198.083 0 0 228.525 1.081 228.525-198.083 0-201.786 32.184-305.705 69.274-358.48h-595.217c37.273 52.667 69.7 156.508 69.7 358.48zM510.805-15.847c-84.929 0-134.076 46.491-148.741 114.063h296.068c-15.164-66.868-65.546-114.063-147.327-114.063zM510.805-15.847z"  horiz-adv-x="1024" />

    
    <glyph glyph-name="home" unicode="&#58885;" d="M1142.390154 387.938462L578.953846 889.698462 15.36 389.435077a25.127385 25.127385 0 0 1-1.339077-36.706462c10.24-10.476308 27.569231-11.106462 38.596923-1.260307l526.178462 467.101538 526.25723-468.519384c5.277538-4.726154 11.972923-7.089231 18.668308-7.089231a27.884308 27.884308 0 0 1 19.928616 8.270769 25.127385 25.127385 0 0 1-1.260308 36.706462z m-171.953231-10.24a26.702769 26.702769 0 0 1-27.332923-25.993847v-398.572307H724.676923V230.39999999999998h-291.446154v-277.267692H214.646154V351.704615a26.702769 26.702769 0 0 1-27.332923 25.993847 26.702769 26.702769 0 0 1-27.332923-25.993847v-450.56h327.837538V178.41230800000005h182.114462v-277.267693h327.837538V351.704615a26.702769 26.702769 0 0 1-27.332923 25.993847zM779.185231 750.040615h163.918769v-138.633846c0-14.336 12.288-25.993846 27.332923-25.993846a26.702769 26.702769 0 0 1 27.332923 25.993846v190.621539H779.185231a26.702769 26.702769 0 0 1-27.332923-25.993846c0-14.336 12.288-25.993846 27.332923-25.993847z"  horiz-adv-x="1181" />

    
    <glyph glyph-name="dianpu" unicode="&#59488;" d="M946.312533 882.4832L937.437867 896H168.209067l-9.0112-11.605333C-36.6592 633.582933-9.557333 480.733867 23.9616 411.989333c33.655467-68.949333 101.922133-113.595733 173.8752-113.595733h6.417067a267.810133 267.810133 0 0 1 182.954666 81.578667c28.672-32.699733 82.807467-76.458667 167.389867-76.458667 88.2688 0 143.291733 47.650133 170.8032 80.6912 38.5024-31.402667 113.664-83.080533 192.375467-83.080533 51.677867 0 95.8464 21.230933 131.959466 63.0784C1183.3344 520.260267 956.0064 867.805867 946.312533 882.4832zM197.8368 358.536533c-40.277333 0-92.842667 24.712533-119.739733 79.872C51.2 493.431467 31.675733 617.813333 197.768533 835.720533h706.901334c62.805333-99.464533 181.8624-335.872 98.850133-432.3328-24.1664-28.4672-52.224-42.052267-85.8112-42.052266-75.912533 0-154.760533 68.949333-172.373333 85.333333V655.018667h-60.2112v-224.733867c-16.520533-22.528-58.231467-66.56-130.525867-66.56-81.646933 0-124.1088 55.978667-135.645867 73.728V655.018667h-60.2112v-216.405334a208.896 208.896 0 0 0-156.8768-80.0768h-4.027733v0.068267zM901.12-2.321067c-11.605333-27.784533-28.672-37.819733-35.362133-40.823466H243.234133c-47.650133 0-59.733333 60.279467-60.279466 60.279466v195.925334h-60.2112l0.4096-200.9088c6.621867-40.004267 40.277333-115.575467 120.149333-115.575467l634.88 0.887467c5.802667 1.570133 56.456533 15.906133 81.373867 84.309333l1.774933 236.202667H901.12v-220.296534"  horiz-adv-x="1092" />

    
    <glyph glyph-name="logs" unicode="&#58881;" d="M742.43413333 618.98524445v227.07768888c0 16.9984-13.77962667 30.77802667-30.77802666 30.77802667h-677.10179556c-16.9984 0-30.77802667-13.77962667-30.77802666-30.77802667v-738.65784888c0-16.9984 13.77962667-30.77802667 30.77802666-30.77802667h295.64017778c63.85891555-110.38947555 183.20611555-184.66360889 319.90556444-184.66360889 203.97511111 0 369.32835555 165.35438222 369.32835556 369.32835556 0.00113778 172.09230222-117.70197333 316.69248-276.99541334 357.69344zM342.33002667 230.51605332999998c-16.9984 0-30.77802667 13.77962667-30.77802667 30.77802667s13.77962667 30.77802667 30.77802667 30.77802667 30.77802667-13.77962667 30.77802666-30.77802667c0-16.9984-13.77962667-30.77802667-30.77802666-30.77802667zM374.84771555 507.51260445h-217.18357333c-16.9984 0-30.77802667-13.77962667-30.77802667-30.77802667s13.77962667-30.77802667 30.77802667-30.77802667h172.53148445c-26.58417778-45.95256889-43.53820445-98.16632889-48.13482667-153.88672h-124.39552c-16.9984 0-30.77802667-13.77962667-30.77802667-30.77802666s13.77962667-30.77802667 30.77802667-30.77802667h124.39552c2.65102222-32.12060445 9.41511111-63.07043555 19.75864889-92.33294223h-205.70908444c-16.9984 0-30.77802667 13.77962667-30.77802667 30.77802667v615.54801778c0 16.9984 13.77962667 30.77802667 30.77802667 30.77802667h553.99310222c16.9984 0 30.77802667-13.77962667 30.77802666-30.77802667v-155.17354667c-10.15011555 0.83740445-20.41059555 1.28682667-30.77802666 1.28682667-109.37571555 0-207.62851555-47.56138667-275.25575112-123.10983111zM680.88035555 569.0663822199999c0-16.9984-13.77962667-30.77802667-30.77802666-30.77802667s-30.77802667 13.77962667-30.77802667 30.77802667c0 16.9984 13.77962667 30.77802667 30.77802667 30.77802667s30.77802667-13.77848889 30.77802666-30.77802667zM650.10346667-77.25852444999998c-16.9984 0-30.77802667 13.77962667-30.77802667 30.77802667s13.77962667 30.77802667 30.77802667 30.77802667 30.77802667-13.77962667 30.77802666-30.77802667c0-16.9984-13.77962667-30.77802667-30.77802666-30.77802667zM824.97877333 392.64483555l-115.41617778-115.41617777c1.35850667-5.08359111 2.09351111-10.42318222 2.09351112-15.93457778 0-33.99566222-27.55811555-61.55377778-61.55377778-61.55377778-33.99566222 0-61.55377778 27.55811555-61.55377778 61.55377778 0 4.28828445 0.44032 8.47303111 1.27544889 12.51669333l-119.32558222 119.32558222c-12.12984889 12.12643555-12.12984889 31.79064889 0 43.91594667 12.12643555 12.12984889 31.79064889 12.12984889 43.91594667 0l117.07392-117.07392c5.87320889 1.86140445 12.12529778 2.87175111 18.61290666 2.87175111 5.51253333 0 10.85098667-0.73500445 15.93457778-2.09351111l115.41617778 115.41617778c12.01834667 12.01834667 31.50734222 12.01834667 43.52568888 0 12.01948445-12.02062222 12.01948445-31.50848 0-43.52682667zM957.87690667 230.51605332999998c-16.9984 0-30.77802667 13.77962667-30.77802667 30.77802667s13.77962667 30.77802667 30.77802667 30.77802667c16.9984 0 30.77802667-13.77962667 30.77802666-30.77802667 0-16.9984-13.77962667-30.77802667-30.77802666-30.77802667zM557.77052445 722.95310222h-400.10752c-16.9984 0-30.77802667-13.77962667-30.77802667-30.77802667s13.77962667-30.77802667 30.77802667-30.77802666h400.10752c16.9984 0 30.77802667 13.77962667 30.77802666 30.77802666s-13.77962667 30.77802667-30.77802666 30.77802667z"  horiz-adv-x="1024" />

    
    <glyph glyph-name="price" unicode="&#58880;" d="M512-128C229.233778-128 0 101.23377800000003 0 384 0 666.766222 229.233778 896 512 896 794.766222 896 1024 666.766222 1024 384 1024 101.23377800000003 794.766222-128 512-128ZM512 839.111111C260.636444 839.111111 56.888889 635.363556 56.888889 384 56.888889 132.63644399999998 260.636444-71.11111100000005 512-71.11111100000005 763.363556-71.11111100000005 967.111111 132.63644399999998 967.111111 384 967.111111 635.363556 763.363556 839.111111 512 839.111111ZM580.494222 440.888889L711.111111 440.888889C726.812444 440.888889 739.555556 428.145778 739.555556 412.444444 739.555556 396.743111 726.812444 384 711.111111 384L540.444444 384 540.444444 298.66666699999996 711.111111 298.66666699999996C726.812444 298.66666699999996 739.555556 285.92355599999996 739.555556 270.222222 739.555556 254.520889 726.812444 241.777778 711.111111 241.777778L540.444444 241.777778 540.444444 128C540.444444 112.29866700000002 527.701333 99.55555600000002 512 99.55555600000002 496.298667 99.55555600000002 483.555556 112.29866700000002 483.555556 128L483.555556 241.777778 312.888889 241.777778C297.187556 241.777778 284.444444 254.520889 284.444444 270.222222 284.444444 285.92355599999996 297.187556 298.66666699999996 312.888889 298.66666699999996L483.555556 298.66666699999996 483.555556 384 312.888889 384C297.187556 384 284.444444 396.743111 284.444444 412.444444 284.444444 428.145778 297.187556 440.888889 312.888889 440.888889L443.477333 440.888889 264.817778 619.548444C253.496889 630.869333 253.496889 649.216 264.817778 660.536889 276.138667 671.857778 294.485333 671.857778 305.806222 660.536889L512.796444 453.546667 719.132444 660.679111C730.225778 671.800889 748.259556 671.800889 759.352889 660.679111 770.474667 649.585778 770.474667 631.5804439999999 759.352889 620.458667L580.494222 440.888889Z"  horiz-adv-x="1024" />

    
    <glyph glyph-name="jia1" unicode="&#58959;" d="M574.57777778-62.92366221999998V829.39904c0 35.25632-28.55025778 63.80771555-63.74286223 63.80771555-35.19146667 0-63.74172445-28.55139555-63.74172444-63.80771555v-892.32270222c0-35.19146667 28.55139555-63.74172445 63.74172444-63.74172445 35.19146667 0 63.74172445 28.61852445 63.74172445 63.74172445zM957.02926222 447.01240889H64.67356445c-35.25745778 0-63.77472-28.55025778-63.77472-63.74172444 0-35.19146667 28.51726222-63.74172445 63.77472-63.74172445H957.0304c35.19146667 0 63.74172445 28.55025778 63.74172445 63.74172445 0 35.19146667-28.61738667 63.74172445-63.74172445 63.74172444z"  horiz-adv-x="1024" />

    
    <glyph glyph-name="gantanhao" unicode="&#58899;" d="M527-96C776-96 992 120 992 369 992 648 776 864 527 864 248 864 32 648 32 369 32 120 248-96 527-96zM512 804c231 0 420-189 420-420s-189-420-420-420S92 153 92 384 281 804 512 804zM512 624m-60 0a60 60 0 1 1 120 0 60 60 0 1 1-120 0ZM632 144h-60V504h-150v-30h60v-330h-60v-30h210z"  horiz-adv-x="1024" />

    
    <glyph glyph-name="nv" unicode="&#59196;" d="M512 832c-160.9 0-292.172-131.272-292.172-292.172 0-147.718 110.58-270.617 253.216-289.737v-99.825H336.697v-77.912h136.347v-136.347h77.912V72.353h136.347v77.912H550.956V250.09c142.636 19.12 253.216 142.019 253.216 289.737C804.172 700.728 672.9 832 512 832z m0-77.912c118.793 0 214.259-95.466 214.259-214.259S630.793 325.569 512 325.569s-214.259 95.466-214.259 214.259S393.207 754.088 512 754.088z"  horiz-adv-x="1024" />

    
    <glyph glyph-name="password" unicode="&#58892;" d="M522.368 885.606c-144.154 0-252.902-114.662-252.902-266.752v-93.747h-8.192c-75.776 0-137.447-63.309-137.447-141.081V23.5c0-77.773 61.67-141.107 137.447-141.107h524.339c75.776 0 137.446 63.334 137.446 141.107V384.026c0 77.772-61.67 141.081-137.446 141.081h-4.506c-1.203 0.435-2.457 0.563-3.712 0.768V618.88c0.051 152.038-109.593 266.726-255.027 266.726z m0-41.83c123.52 0 213.248-94.592 213.248-224.947v-92.365H311.322v92.365c0 130.355 88.755 224.947 211.046 224.947z m358.912-459.75V23.5c0-54.733-42.931-99.277-95.616-99.277H261.299c-52.736 0-95.616 44.544-95.616 99.277V384.026c0 54.707 42.88 99.25 95.616 99.25h50.023v1.383H735.59v-1.382h50.048c52.71-0.026 95.642-44.544 95.642-99.251z m0 0M518.86 327.962c-33.51 0-60.671-28.007-60.671-62.567 0-23.117 12.237-43.34 30.336-54.17V109.02999999999997c0-17.254 13.568-31.308 30.336-31.308 16.742 0 30.336 14.054 30.336 31.308V211.20000000000005c18.099 10.829 30.31 31.027 30.31 54.17-0.051 34.56-27.187 62.592-60.646 62.592z m0 0"  horiz-adv-x="1024" />

    
    <glyph glyph-name="xuantian" unicode="&#58887;" d="M985.811665 577.945274A511.939348 511.939348 0 1 1 1023.984441 383.264114a503.88065 503.88065 0 0 1-38.172776 194.68116zM453.937645 453.247537a254.485177 254.485177 0 0 1-26.720944 12.300117 220.55382 220.55382 0 0 1-25.024375 8.058698 667.175306 667.175306 0 0 1 35.203782 76.345553 508.970354 508.970354 0 0 1 23.75195 81.859398l53.866029-11.875975-8.482839-27.145085a84.828392 84.828392 0 0 0-4.665562-16.965679l-4.665561-11.875975h65.317862v84.828393h58.955733v-84.828393h130.635724V510.506702h-128.939156v-79.314547h153.115248V383.264114h-114.942472v-94.583658a27.145086 27.145086 0 0 1 4.665562-22.055382 19.086388 19.086388 0 0 1 17.813962-5.089703h13.996685q23.75195-3.393136 27.145085 27.145085a218.857252 218.857252 0 0 0 0 22.055382q0 13.572543 2.544852 32.234789 17.38982-5.089704 29.265795-10.179407l20.358815-7.634555q0-16.541537-3.393136-30.962363a155.235958 155.235958 0 0 0-5.089704-25.87266 66.590288 66.590288 0 0 0-19.934672-42.414196 60.652301 60.652301 0 0 0-45.807332-13.148401h-38.172776a57.683307 57.683307 0 0 0-48.352184 16.117395 72.528275 72.528275 0 0 0-14.420827 53.866029V383.264114h-60.228158a192.136309 192.136309 0 0 0-99.249219-182.381044 372.820784 372.820784 0 0 1-42.414196 42.414196 139.966847 139.966847 0 0 1 84.828392 139.542706H394.981912v50.048751h169.656785V510.506702h-84.828393z m-214.191691-274.843991l20.782956 19.934672 24.176092 23.327808a103.914781 103.914781 0 0 0 18.662246 14.844969v167.111933H244.411516v56.410881h119.608033v-218.857252a114.51833 114.51833 0 0 1 50.048751-47.5039 166.687791 166.687791 0 0 1 73.800702-15.269111q47.928042-3.393136 207.829561 0h94.583657a78.466263 78.466263 0 0 1-7.210413-14.844968q-3.817278-9.755265-8.482839-23.75195a42.414196 42.414196 0 0 1-2.12071-9.331123 11.027691 11.027691 0 0 0-2.12071-6.36213h-147.601402L469.630897 128.778937a204.860567 204.860567 0 0 0-78.042121 16.541536 142.511699 142.511699 0 0 0-54.714313 42.414196l-36.476208-36.052066a411.417703 411.417703 0 0 1-33.083073-36.052067z m99.249219 335.920434q-6.786271 11.451833-19.086388 28.417511t-30.538221 39.021061a163.294655 163.294655 0 0 0-13.996685 18.238104l-8.482839 13.572543 49.624609 28.841653 22.479524-28.841653q18.662246-22.055382 30.962363-39.021061l21.207099-29.265795z m0 0"  horiz-adv-x="1030" />

    
    <glyph glyph-name="next" unicode="&#58890;" d="M102.39999969 415.99999969C63.99999969 415.99999969 32 384 32 352.00000031s31.99999969-64.00000031 70.39999969-64.00000031c38.4 0 70.39999969 31.99999969 70.40000062 64.00000031s-38.4 64.00000031-70.40000062 63.99999938zM416 415.99999969c-38.4 0-70.39999969-31.99999969-70.39999969-63.99999938S377.6 288 416 288c38.4 0 64.00000031 31.99999969 64.00000031 64.00000031s-25.60000031 64.00000031-64.00000031 63.99999938z m1152-38.4c-6.40000031 12.79999969-12.79999969 19.2-19.2 25.60000031l-390.40000031 377.59999969c-25.60000031 25.60000031-64.00000031 25.60000031-89.59999969 0-25.60000031-25.60000031-25.60000031-64.00000031 0-89.59999969L1344.00000031 415.99999969h-633.6c-38.4 0-64.00000031-31.99999969-64.00000031-63.99999938s31.99999969-64.00000031 64.00000031-64.00000031h633.6l-281.60000062-275.20000031c-25.60000031-25.60000031-25.60000031-64.00000031 0-89.59999969 25.60000031-25.60000031 64.00000031-25.60000031 89.60000062 0l396.79999969 384v6.40000031l6.40000031 6.39999938c0 6.40000031 6.40000031 6.40000031 6.39999938 12.80000062v25.59999938c6.40000031 6.40000031 6.40000031 12.79999969 6.40000031 19.2z"  horiz-adv-x="1638" />

    
    <glyph glyph-name="left" unicode="&#59075;" d="M717.13503 829.521936c11.984962 0 23.955598-4.631484 33.007765-13.86375199 17.863856-18.225083 17.571191-47.48754701-0.653893-65.35038001l-374.97316-367.491769L749.487879 15.317102989999967c18.225083-17.863856 18.517749-47.12529699 0.653893-65.35037999-17.865903-18.225083-47.12018101-18.517749-65.343217-0.653893l-408.648121 400.496463c-8.871041 8.691963-13.863752 20.586874-13.863752 33.007765 0 12.412704 4.992711 24.30761501 13.863752 32.997532L684.798555 816.312076C693.789323 825.13195299 705.467293 829.521936 717.13503 829.521936L717.13503 829.521936zM717.13503 829.521936"  horiz-adv-x="1024" />

    
    <glyph glyph-name="down" unicode="&#59076;" d="M66.478064 589.1350299999999c0 11.984962 4.631484 23.955598 13.86375199 33.007765 18.225083 17.863856 47.48754701 17.571191 65.35038001-0.653893l367.491769-374.97316L880.68289701 621.487879c17.863856 18.225083 47.12529699 18.517749 65.35037999 0.653893 18.225083-17.865903 18.517749-47.12018101 0.653893-65.343217l-400.496463-408.648121c-8.691963-8.871041-20.586874-13.863752-33.007765-13.863752-12.412704 0-24.30761501 4.992711-32.997532 13.863752L79.687924 556.7985550000001C70.86804701 565.789323 66.478064 577.4672929999999 66.478064 589.1350299999999L66.478064 589.1350299999999zM66.478064 589.1350299999999"  horiz-adv-x="1024" />

    
    <glyph glyph-name="up" unicode="&#59077;" d="M957.521936 178.86496999999997c0-11.984962-4.631484-23.955598-13.86375199-33.007765-18.225083-17.863856-47.48754701-17.571191-65.35038001 0.653893l-367.491769 374.97316L143.31710299 146.51212099999998c-17.863856-18.225083-47.12529699-18.517749-65.35037999-0.653893-18.225083 17.865903-18.517749 47.12018101-0.653893 65.343217l400.496463 408.648121c8.691963 8.871041 20.586874 13.863752 33.007765 13.863752 12.412704 0 24.30761501-4.992711 32.997532-13.863752L944.312076 211.20144500000004C953.13195299 202.21067700000003 957.521936 190.53270699999996 957.521936 178.86496999999997L957.521936 178.86496999999997zM957.521936 178.86496999999997"  horiz-adv-x="1024" />

    
    <glyph glyph-name="icondown" unicode="&#59489;" d="M320.719512 237.51167099999998c4.329609 10.697643 13.921058 17.040095 25.236777 17.040095L479.765855 254.55176600000004 479.765855 707.10995499c0 17.838274 14.398942 32.29656699 32.232099 32.296567 17.838274 0 32.236192-14.458293 32.236192-32.29656699L544.234145 254.55176600000004l134.206608 0c11.31469701 0 20.906146-6.34245199 25.23473099-17.040095 4.330632-10.69969 2.081405-22.148439-5.92084999-30.334889l-166.241208-170.104189c-5.333472-5.459339-11.77313801-8.1711-19.315928-8.17109999-7.543813 0-13.98245601 2.742461-19.316951 8.20179899l-166.241208 170.068374C318.641177 215.358115 316.389904 226.81300499999998 320.719512 237.51167099999998z"  horiz-adv-x="1024" />

    


  </font>
</defs>
</svg>
